<?xml version="1.0" encoding="UTF-8" standalone="no"?>
<!DOCTYPE svg PUBLIC "-//W3C//DTD SVG 1.1//EN"
 "http://www.w3.org/Graphics/SVG/1.1/DTD/svg11.dtd">
<!-- Generated by graphviz version 12.1.1 (0)
 -->
<!-- Title: ComponentRelations Pages: 1 -->
<svg width="1948pt" height="942pt"
 viewBox="0.00 0.00 1947.50 942.00" xmlns="http://www.w3.org/2000/svg" xmlns:xlink="http://www.w3.org/1999/xlink">
<g id="graph0" class="graph" transform="scale(1 1) rotate(0) translate(4 938)">
<title>ComponentRelations</title>
<polygon fill="white" stroke="none" points="-4,4 -4,-938 1943.5,-938 1943.5,4 -4,4"/>
<g id="clust1" class="cluster">
<title>cluster_testing</title>
<path fill="none" stroke="black" d="M580.5,-395.83C580.5,-395.83 896.5,-395.83 896.5,-395.83 902.5,-395.83 908.5,-401.83 908.5,-407.83 908.5,-407.83 908.5,-788.51 908.5,-788.51 908.5,-794.51 902.5,-800.51 896.5,-800.51 896.5,-800.51 580.5,-800.51 580.5,-800.51 574.5,-800.51 568.5,-794.51 568.5,-788.51 568.5,-788.51 568.5,-407.83 568.5,-407.83 568.5,-401.83 574.5,-395.83 580.5,-395.83"/>
<text text-anchor="middle" x="738.5" y="-783.21" font-family="Times,serif" font-size="14.00">Teting Utilities</text>
</g>
<g id="clust2" class="cluster">
<title>cluster_configurations</title>
<path fill="none" stroke="black" d="M91.5,-395.83C91.5,-395.83 548.5,-395.83 548.5,-395.83 554.5,-395.83 560.5,-401.83 560.5,-407.83 560.5,-407.83 560.5,-788.51 560.5,-788.51 560.5,-794.51 554.5,-800.51 548.5,-800.51 548.5,-800.51 91.5,-800.51 91.5,-800.51 85.5,-800.51 79.5,-794.51 79.5,-788.51 79.5,-788.51 79.5,-407.83 79.5,-407.83 79.5,-401.83 85.5,-395.83 91.5,-395.83"/>
<text text-anchor="middle" x="320" y="-783.21" font-family="Times,serif" font-size="14.00">Configurations</text>
</g>
<g id="clust3" class="cluster">
<title>cluster_librairies</title>
<path fill="none" stroke="black" d="M1397.5,-163.81C1397.5,-163.81 1626.5,-163.81 1626.5,-163.81 1632.5,-163.81 1638.5,-169.81 1638.5,-175.81 1638.5,-175.81 1638.5,-556.49 1638.5,-556.49 1638.5,-562.49 1632.5,-568.49 1626.5,-568.49 1626.5,-568.49 1397.5,-568.49 1397.5,-568.49 1391.5,-568.49 1385.5,-562.49 1385.5,-556.49 1385.5,-556.49 1385.5,-175.81 1385.5,-175.81 1385.5,-169.81 1391.5,-163.81 1397.5,-163.81"/>
<text text-anchor="middle" x="1512" y="-551.19" font-family="Times,serif" font-size="14.00">Librairies</text>
</g>
<g id="clust4" class="cluster">
<title>cluster_services</title>
<path fill="none" stroke="black" d="M1019.5,-163.81C1019.5,-163.81 1241.5,-163.81 1241.5,-163.81 1247.5,-163.81 1253.5,-169.81 1253.5,-175.81 1253.5,-175.81 1253.5,-788.51 1253.5,-788.51 1253.5,-794.51 1247.5,-800.51 1241.5,-800.51 1241.5,-800.51 1019.5,-800.51 1019.5,-800.51 1013.5,-800.51 1007.5,-794.51 1007.5,-788.51 1007.5,-788.51 1007.5,-175.81 1007.5,-175.81 1007.5,-169.81 1013.5,-163.81 1019.5,-163.81"/>
<text text-anchor="middle" x="1130.5" y="-783.21" font-family="Times,serif" font-size="14.00">HMI services</text>
</g>
<g id="clust5" class="cluster">
<title>cluster_deprectated</title>
<path fill="none" stroke="black" d="M504.5,-13.48C504.5,-13.48 987.5,-13.48 987.5,-13.48 993.5,-13.48 999.5,-19.48 999.5,-25.48 999.5,-25.48 999.5,-324.46 999.5,-324.46 999.5,-330.46 993.5,-336.46 987.5,-336.46 987.5,-336.46 504.5,-336.46 504.5,-336.46 498.5,-336.46 492.5,-330.46 492.5,-324.46 492.5,-324.46 492.5,-25.48 492.5,-25.48 492.5,-19.48 498.5,-13.48 504.5,-13.48"/>
<text text-anchor="middle" x="746" y="-319.16" font-family="Times,serif" font-size="14.00">Deprecated</text>
</g>
<g id="clust6" class="cluster">
<title>cluster_data_collection</title>
<path fill="none" stroke="black" d="M1325.5,-627.86C1325.5,-627.86 1919.5,-627.86 1919.5,-627.86 1925.5,-627.86 1931.5,-633.86 1931.5,-639.86 1931.5,-639.86 1931.5,-788.51 1931.5,-788.51 1931.5,-794.51 1925.5,-800.51 1919.5,-800.51 1919.5,-800.51 1325.5,-800.51 1325.5,-800.51 1319.5,-800.51 1313.5,-794.51 1313.5,-788.51 1313.5,-788.51 1313.5,-639.86 1313.5,-639.86 1313.5,-633.86 1319.5,-627.86 1325.5,-627.86"/>
<text text-anchor="middle" x="1622.5" y="-783.21" font-family="Times,serif" font-size="14.00">Specific&#45;purpose data&#45;collection utilities</text>
</g>
<!-- H2F_control_deploy -->
<g id="node1" class="node">
<title>H2F_control_deploy</title>
<g id="a_node1"><a xlink:href="https://github.com/lkzjdnb/H2F_control_deploy" xlink:title="H2F_control_deploy">
<ellipse fill="none" stroke="black" cx="1193.5" cy="-903.48" rx="110.66" ry="18"/>
<text text-anchor="middle" x="1193.5" y="-898.8" font-family="Times,serif" font-size="14.00">H2F_control_deploy</text>
</a>
</g>
</g>
<!-- bridge_config -->
<g id="node6" class="node">
<title>bridge_config</title>
<path fill="none" stroke="black" d="M439.5,-457.48C439.5,-457.48 351.5,-457.48 351.5,-457.48 345.5,-457.48 339.5,-451.48 339.5,-445.48 339.5,-445.48 339.5,-433.48 339.5,-433.48 339.5,-427.48 345.5,-421.48 351.5,-421.48 351.5,-421.48 439.5,-421.48 439.5,-421.48 445.5,-421.48 451.5,-427.48 451.5,-433.48 451.5,-433.48 451.5,-445.48 451.5,-445.48 451.5,-451.48 445.5,-457.48 439.5,-457.48"/>
<text text-anchor="middle" x="395.5" y="-434.8" font-family="Times,serif" font-size="14.00">bridge_config</text>
</g>
<!-- H2F_control_deploy&#45;&gt;bridge_config -->
<g id="edge5" class="edge">
<title>H2F_control_deploy&#45;&gt;bridge_config</title>
<path fill="none" stroke="black" d="M1141.9,-887.14C1098.64,-873.68 1035.6,-852.69 982.5,-829.48"/>
<path fill="none" stroke="black" d="M982.5,-827.48C787.07,-742.04 170.44,-904.91 26,-747.98 -86.14,-626.13 197.54,-508.43 330.82,-461.65"/>
<polygon fill="black" stroke="black" points="331.96,-464.96 340.26,-458.37 329.66,-458.35 331.96,-464.96"/>
<text text-anchor="middle" x="52.25" y="-666.8" font-family="Times,serif" font-size="14.00">Installs</text>
</g>
<!-- industrial_bridge -->
<g id="node11" class="node">
<title>industrial_bridge</title>
<g id="a_node11"><a xlink:href="https://github.com/lkzjdnb/industrial_bridge" xlink:title="industrial_bridge">
<path fill="none" stroke="black" d="M1141.63,-457.48C1141.63,-457.48 1027.38,-457.48 1027.38,-457.48 1021.38,-457.48 1015.38,-451.48 1015.38,-445.48 1015.38,-445.48 1015.38,-433.48 1015.38,-433.48 1015.38,-427.48 1021.38,-421.48 1027.38,-421.48 1027.38,-421.48 1141.63,-421.48 1141.63,-421.48 1147.63,-421.48 1153.63,-427.48 1153.63,-433.48 1153.63,-433.48 1153.63,-445.48 1153.63,-445.48 1153.63,-451.48 1147.63,-457.48 1141.63,-457.48"/>
<text text-anchor="middle" x="1084.5" y="-434.8" font-family="Times,serif" font-size="14.00">industrial_bridge</text>
</a>
</g>
</g>
<!-- H2F_control_deploy&#45;&gt;industrial_bridge -->
<g id="edge6" class="edge">
<title>H2F_control_deploy&#45;&gt;industrial_bridge</title>
<path fill="none" stroke="black" d="M982.5,-827.48C848.62,-767.77 1004.69,-543.63 1063.72,-466.64"/>
<polygon fill="black" stroke="black" points="1066.45,-468.83 1069.81,-458.78 1060.92,-464.54 1066.45,-468.83"/>
<text text-anchor="middle" x="977.5" y="-666.8" font-family="Times,serif" font-size="14.00">Installs</text>
</g>
<!-- H2F_control -->
<g id="node12" class="node">
<title>H2F_control</title>
<path fill="none" stroke="black" d="M1233.38,-689.48C1233.38,-689.48 1153.63,-689.48 1153.63,-689.48 1147.63,-689.48 1141.63,-683.48 1141.63,-677.48 1141.63,-677.48 1141.63,-665.48 1141.63,-665.48 1141.63,-659.48 1147.63,-653.48 1153.63,-653.48 1153.63,-653.48 1233.38,-653.48 1233.38,-653.48 1239.38,-653.48 1245.38,-659.48 1245.38,-665.48 1245.38,-665.48 1245.38,-677.48 1245.38,-677.48 1245.38,-683.48 1239.38,-689.48 1233.38,-689.48"/>
<text text-anchor="middle" x="1193.5" y="-666.8" font-family="Times,serif" font-size="14.00">H2F_control</text>
</g>
<!-- H2F_control_deploy&#45;&gt;H2F_control -->
<g id="edge7" class="edge">
<title>H2F_control_deploy&#45;&gt;H2F_control</title>
<path fill="none" stroke="black" d="M1193.5,-885.19C1193.5,-845.98 1193.5,-749.95 1193.5,-701.47"/>
<polygon fill="black" stroke="black" points="1197,-701.48 1193.5,-691.48 1190,-701.48 1197,-701.48"/>
<text text-anchor="middle" x="1219.75" y="-823.8" font-family="Times,serif" font-size="14.00">Installs</text>
</g>
<!-- Grafana -->
<g id="node13" class="node">
<title>Grafana</title>
<path fill="none" stroke="black" d="M1233,-457.48C1233,-457.48 1184,-457.48 1184,-457.48 1178,-457.48 1172,-451.48 1172,-445.48 1172,-445.48 1172,-433.48 1172,-433.48 1172,-427.48 1178,-421.48 1184,-421.48 1184,-421.48 1233,-421.48 1233,-421.48 1239,-421.48 1245,-427.48 1245,-433.48 1245,-433.48 1245,-445.48 1245,-445.48 1245,-451.48 1239,-457.48 1233,-457.48"/>
<text text-anchor="middle" x="1208.5" y="-434.8" font-family="Times,serif" font-size="14.00">Grafana</text>
</g>
<!-- H2F_control_deploy&#45;&gt;Grafana -->
<g id="edge8" class="edge">
<title>H2F_control_deploy&#45;&gt;Grafana</title>
<path fill="none" stroke="black" d="M982.5,-827.48C942.76,-809.85 1018.69,-786.15 1039.5,-747.98 1062.95,-704.97 1057.74,-689.11 1080,-645.48 1111.01,-584.69 1126.41,-573.89 1162.5,-515.98 1172.43,-500.04 1183.37,-482.1 1192.09,-467.7"/>
<polygon fill="black" stroke="black" points="1195.04,-469.59 1197.22,-459.22 1189.05,-465.97 1195.04,-469.59"/>
<text text-anchor="middle" x="1106.25" y="-666.8" font-family="Times,serif" font-size="14.00">Installs</text>
</g>
<!-- InfluxDB -->
<g id="node14" class="node">
<title>InfluxDB</title>
<path fill="none" stroke="black" d="M1167.63,-225.48C1167.63,-225.48 1113.38,-225.48 1113.38,-225.48 1107.38,-225.48 1101.38,-219.48 1101.38,-213.48 1101.38,-213.48 1101.38,-201.48 1101.38,-201.48 1101.38,-195.48 1107.38,-189.48 1113.38,-189.48 1113.38,-189.48 1167.63,-189.48 1167.63,-189.48 1173.63,-189.48 1179.63,-195.48 1179.63,-201.48 1179.63,-201.48 1179.63,-213.48 1179.63,-213.48 1179.63,-219.48 1173.63,-225.48 1167.63,-225.48"/>
<text text-anchor="middle" x="1140.5" y="-202.8" font-family="Times,serif" font-size="14.00">InfluxDB</text>
</g>
<!-- H2F_control_deploy&#45;&gt;InfluxDB -->
<g id="edge9" class="edge">
<title>H2F_control_deploy&#45;&gt;InfluxDB</title>
<path fill="none" stroke="black" d="M1214.2,-885.34C1227.12,-873.31 1242.72,-856.04 1250.5,-837.1 1291.21,-738 1319.05,-455.42 1279.5,-355.85 1258.62,-303.27 1209.09,-258.57 1175.16,-232.62"/>
<polygon fill="black" stroke="black" points="1177.36,-229.89 1167.26,-226.71 1173.17,-235.5 1177.36,-229.89"/>
<text text-anchor="middle" x="1321.67" y="-591.8" font-family="Times,serif" font-size="14.00">Installs</text>
</g>
<!-- H2F_test_devices -->
<g id="node2" class="node">
<title>H2F_test_devices</title>
<path fill="none" stroke="black" d="M786.13,-689.48C786.13,-689.48 668.88,-689.48 668.88,-689.48 662.88,-689.48 656.88,-683.48 656.88,-677.48 656.88,-677.48 656.88,-665.48 656.88,-665.48 656.88,-659.48 662.88,-653.48 668.88,-653.48 668.88,-653.48 786.13,-653.48 786.13,-653.48 792.13,-653.48 798.13,-659.48 798.13,-665.48 798.13,-665.48 798.13,-677.48 798.13,-677.48 798.13,-683.48 792.13,-689.48 786.13,-689.48"/>
<text text-anchor="middle" x="727.5" y="-666.8" font-family="Times,serif" font-size="14.00">H2F_test_devices</text>
</g>
<!-- modbus_test_server -->
<g id="node3" class="node">
<title>modbus_test_server</title>
<path fill="none" stroke="black" d="M724.13,-457.48C724.13,-457.48 588.88,-457.48 588.88,-457.48 582.88,-457.48 576.88,-451.48 576.88,-445.48 576.88,-445.48 576.88,-433.48 576.88,-433.48 576.88,-427.48 582.88,-421.48 588.88,-421.48 588.88,-421.48 724.13,-421.48 724.13,-421.48 730.13,-421.48 736.13,-427.48 736.13,-433.48 736.13,-433.48 736.13,-445.48 736.13,-445.48 736.13,-451.48 730.13,-457.48 724.13,-457.48"/>
<text text-anchor="middle" x="656.5" y="-434.8" font-family="Times,serif" font-size="14.00">modbus_test_server</text>
</g>
<!-- H2F_test_devices&#45;&gt;modbus_test_server -->
<g id="edge17" class="edge">
<title>H2F_test_devices&#45;&gt;modbus_test_server</title>
<path fill="none" stroke="black" d="M658.9,-653.06C634.48,-643.19 609.51,-628.05 595.25,-605.1 567.31,-560.11 605.47,-500.4 632.9,-466.64"/>
<polygon fill="black" stroke="black" points="635.57,-468.91 639.32,-459 630.21,-464.41 635.57,-468.91"/>
<text text-anchor="middle" x="612.88" y="-591.8" font-family="Times,serif" font-size="14.00">Uses</text>
</g>
<!-- snap7_test_server -->
<g id="node4" class="node">
<title>snap7_test_server</title>
<path fill="none" stroke="black" d="M888.38,-457.48C888.38,-457.48 766.63,-457.48 766.63,-457.48 760.63,-457.48 754.63,-451.48 754.63,-445.48 754.63,-445.48 754.63,-433.48 754.63,-433.48 754.63,-427.48 760.63,-421.48 766.63,-421.48 766.63,-421.48 888.38,-421.48 888.38,-421.48 894.38,-421.48 900.38,-427.48 900.38,-433.48 900.38,-433.48 900.38,-445.48 900.38,-445.48 900.38,-451.48 894.38,-457.48 888.38,-457.48"/>
<text text-anchor="middle" x="827.5" y="-434.8" font-family="Times,serif" font-size="14.00">snap7_test_server</text>
</g>
<!-- H2F_test_devices&#45;&gt;snap7_test_server -->
<g id="edge18" class="edge">
<title>H2F_test_devices&#45;&gt;snap7_test_server</title>
<path fill="none" stroke="black" d="M724.83,-653.26C722.84,-636.23 721.49,-609.63 728.25,-587.85 743.1,-540 779.06,-493.54 803.36,-465.97"/>
<polygon fill="black" stroke="black" points="805.7,-468.61 809.79,-458.83 800.5,-463.92 805.7,-468.61"/>
<text text-anchor="middle" x="745.88" y="-591.8" font-family="Times,serif" font-size="14.00">Uses</text>
</g>
<!-- H2F_test_devices&#45;&gt;industrial_bridge -->
<g id="edge16" class="edge">
<title>H2F_test_devices&#45;&gt;industrial_bridge</title>
<path fill="none" stroke="black" d="M736.48,-653.05C746.57,-634.87 764.42,-606.46 786.25,-587.85 825.95,-554.02 958.09,-494.56 1032.47,-462.48"/>
<polygon fill="black" stroke="black" points="1033.82,-465.72 1041.62,-458.55 1031.05,-459.29 1033.82,-465.72"/>
<text text-anchor="middle" x="922.38" y="-591.8" font-family="Times,serif" font-size="14.00">Emulate for components&#45;graphtesting</text>
</g>
<!-- modbus_server -->
<g id="node16" class="node">
<title>modbus_server</title>
<path fill="none" stroke="black" d="M612.88,-225.48C612.88,-225.48 512.13,-225.48 512.13,-225.48 506.13,-225.48 500.13,-219.48 500.13,-213.48 500.13,-213.48 500.13,-201.48 500.13,-201.48 500.13,-195.48 506.13,-189.48 512.13,-189.48 512.13,-189.48 612.88,-189.48 612.88,-189.48 618.88,-189.48 624.88,-195.48 624.88,-201.48 624.88,-201.48 624.88,-213.48 624.88,-213.48 624.88,-219.48 618.88,-225.48 612.88,-225.48"/>
<text text-anchor="middle" x="562.5" y="-202.8" font-family="Times,serif" font-size="14.00">modbus_server</text>
</g>
<!-- modbus_test_server&#45;&gt;modbus_server -->
<g id="edge21" class="edge">
<title>modbus_test_server&#45;&gt;modbus_server</title>
<path fill="none" stroke="black" stroke-dasharray="1,5" d="M649.44,-421.19C633.31,-381.73 593.66,-284.72 573.98,-236.55"/>
<polygon fill="black" stroke="black" points="577.24,-235.3 570.22,-227.36 570.76,-237.95 577.24,-235.3"/>
<text text-anchor="middle" x="660.6" y="-359.8" font-family="Times,serif" font-size="14.00">Replaces</text>
</g>
<!-- grafana_dashboard_convert -->
<g id="node5" class="node">
<title>grafana_dashboard_convert</title>
<path fill="none" stroke="black" d="M540.13,-689.48C540.13,-689.48 350.88,-689.48 350.88,-689.48 344.88,-689.48 338.88,-683.48 338.88,-677.48 338.88,-677.48 338.88,-665.48 338.88,-665.48 338.88,-659.48 344.88,-653.48 350.88,-653.48 350.88,-653.48 540.13,-653.48 540.13,-653.48 546.13,-653.48 552.13,-659.48 552.13,-665.48 552.13,-665.48 552.13,-677.48 552.13,-677.48 552.13,-683.48 546.13,-689.48 540.13,-689.48"/>
<text text-anchor="middle" x="445.5" y="-666.8" font-family="Times,serif" font-size="14.00">grafana_dashboard_convert</text>
</g>
<!-- grafana_dashboard_convert&#45;&gt;Grafana -->
<g id="edge14" class="edge">
<title>grafana_dashboard_convert&#45;&gt;Grafana</title>
<path fill="none" stroke="black" d="M444.16,-653.01C443.76,-633.96 446.41,-604.01 464.75,-587.85 581.71,-484.8 1030.69,-599.19 1162.5,-515.98 1179.86,-505.02 1191.63,-484.91 1198.92,-468.2"/>
<polygon fill="black" stroke="black" points="1202.04,-469.83 1202.51,-459.24 1195.54,-467.22 1202.04,-469.83"/>
<text text-anchor="middle" x="514.63" y="-591.8" font-family="Times,serif" font-size="14.00">Define graphs</text>
</g>
<!-- compressor_HMI_regs_extract -->
<g id="node7" class="node">
<title>compressor_HMI_regs_extract</title>
<path fill="none" stroke="black" d="M309.25,-689.48C309.25,-689.48 99.75,-689.48 99.75,-689.48 93.75,-689.48 87.75,-683.48 87.75,-677.48 87.75,-677.48 87.75,-665.48 87.75,-665.48 87.75,-659.48 93.75,-653.48 99.75,-653.48 99.75,-653.48 309.25,-653.48 309.25,-653.48 315.25,-653.48 321.25,-659.48 321.25,-665.48 321.25,-665.48 321.25,-677.48 321.25,-677.48 321.25,-683.48 315.25,-689.48 309.25,-689.48"/>
<text text-anchor="middle" x="204.5" y="-666.8" font-family="Times,serif" font-size="14.00">compressor_HMI_regs_extract</text>
</g>
<!-- compressor_HMI_regs_extract&#45;&gt;bridge_config -->
<g id="edge15" class="edge">
<title>compressor_HMI_regs_extract&#45;&gt;bridge_config</title>
<path fill="none" stroke="black" d="M218.86,-653.19C252.04,-613.23 334.23,-514.26 373.69,-466.75"/>
<polygon fill="black" stroke="black" points="376.32,-469.06 380.01,-459.13 370.93,-464.58 376.32,-469.06"/>
<text text-anchor="middle" x="335.48" y="-591.8" font-family="Times,serif" font-size="14.00">Provide Registers</text>
</g>
<!-- industrial_device -->
<g id="node8" class="node">
<title>industrial_device</title>
<path fill="none" stroke="black" d="M1519.25,-225.48C1519.25,-225.48 1405.75,-225.48 1405.75,-225.48 1399.75,-225.48 1393.75,-219.48 1393.75,-213.48 1393.75,-213.48 1393.75,-201.48 1393.75,-201.48 1393.75,-195.48 1399.75,-189.48 1405.75,-189.48 1405.75,-189.48 1519.25,-189.48 1519.25,-189.48 1525.25,-189.48 1531.25,-195.48 1531.25,-201.48 1531.25,-201.48 1531.25,-213.48 1531.25,-213.48 1531.25,-219.48 1525.25,-225.48 1519.25,-225.48"/>
<text text-anchor="middle" x="1462.5" y="-202.8" font-family="Times,serif" font-size="14.00">industrial_device</text>
</g>
<!-- modbus_device -->
<g id="node9" class="node">
<title>modbus_device</title>
<path fill="none" stroke="black" d="M1505.88,-457.48C1505.88,-457.48 1405.13,-457.48 1405.13,-457.48 1399.13,-457.48 1393.13,-451.48 1393.13,-445.48 1393.13,-445.48 1393.13,-433.48 1393.13,-433.48 1393.13,-427.48 1399.13,-421.48 1405.13,-421.48 1405.13,-421.48 1505.88,-421.48 1505.88,-421.48 1511.88,-421.48 1517.88,-427.48 1517.88,-433.48 1517.88,-433.48 1517.88,-445.48 1517.88,-445.48 1517.88,-451.48 1511.88,-457.48 1505.88,-457.48"/>
<text text-anchor="middle" x="1455.5" y="-434.8" font-family="Times,serif" font-size="14.00">modbus_device</text>
</g>
<!-- modbus_device&#45;&gt;industrial_device -->
<g id="edge1" class="edge">
<title>modbus_device&#45;&gt;industrial_device</title>
<path fill="none" stroke="black" d="M1449.82,-421.22C1445.83,-408.17 1440.85,-389.72 1438.75,-373.1 1432.7,-325.13 1444.73,-269.49 1453.77,-236.73"/>
<polygon fill="black" stroke="black" points="1457.11,-237.78 1456.51,-227.2 1450.38,-235.85 1457.11,-237.78"/>
<text text-anchor="middle" x="1481.13" y="-359.8" font-family="Times,serif" font-size="14.00">Implements</text>
</g>
<!-- S7_devices -->
<g id="node10" class="node">
<title>S7_devices</title>
<path fill="none" stroke="black" d="M1618.88,-457.48C1618.88,-457.48 1548.13,-457.48 1548.13,-457.48 1542.13,-457.48 1536.13,-451.48 1536.13,-445.48 1536.13,-445.48 1536.13,-433.48 1536.13,-433.48 1536.13,-427.48 1542.13,-421.48 1548.13,-421.48 1548.13,-421.48 1618.88,-421.48 1618.88,-421.48 1624.88,-421.48 1630.88,-427.48 1630.88,-433.48 1630.88,-433.48 1630.88,-445.48 1630.88,-445.48 1630.88,-451.48 1624.88,-457.48 1618.88,-457.48"/>
<text text-anchor="middle" x="1583.5" y="-434.8" font-family="Times,serif" font-size="14.00">S7_devices</text>
</g>
<!-- S7_devices&#45;&gt;industrial_device -->
<g id="edge2" class="edge">
<title>S7_devices&#45;&gt;industrial_device</title>
<path fill="none" stroke="black" d="M1574.41,-421.19C1553.56,-381.56 1502.18,-283.9 1476.95,-235.94"/>
<polygon fill="black" stroke="black" points="1480.16,-234.52 1472.41,-227.3 1473.96,-237.78 1480.16,-234.52"/>
<text text-anchor="middle" x="1590.12" y="-359.8" font-family="Times,serif" font-size="14.00">Implements</text>
</g>
<!-- industrial_bridge&#45;&gt;bridge_config -->
<g id="edge13" class="edge">
<title>industrial_bridge&#45;&gt;bridge_config</title>
<path fill="none" stroke="black" d="M1057.29,-457.93C987.48,-502.97 796.18,-611.88 634.63,-570.52 554.52,-550.01 472.39,-496.47 428.31,-464.53"/>
<polygon fill="black" stroke="black" points="430.58,-461.86 420.45,-458.77 426.44,-467.51 430.58,-461.86"/>
<text text-anchor="middle" x="669.5" y="-591.8" font-family="Times,serif" font-size="14.00">Configure</text>
</g>
<!-- industrial_bridge&#45;&gt;industrial_device -->
<g id="edge3" class="edge">
<title>industrial_bridge&#45;&gt;industrial_device</title>
<path fill="none" stroke="black" d="M1125.2,-421.04C1152.9,-408.69 1190.1,-391.18 1221.5,-373.1 1299.61,-328.15 1385.5,-266.2 1430.67,-232.57"/>
<polygon fill="black" stroke="black" points="1432.55,-235.53 1438.46,-226.74 1428.36,-229.93 1432.55,-235.53"/>
<text text-anchor="middle" x="1266.34" y="-359.8" font-family="Times,serif" font-size="14.00">Uses</text>
</g>
<!-- industrial_bridge&#45;&gt;InfluxDB -->
<g id="edge10" class="edge">
<title>industrial_bridge&#45;&gt;InfluxDB</title>
<path fill="none" stroke="black" d="M1064.13,-421.16C1047.89,-405.13 1029.05,-380.17 1036.75,-355.85 1052.01,-307.67 1089.32,-261.62 1114.77,-234.19"/>
<polygon fill="black" stroke="black" points="1117.19,-236.72 1121.54,-227.06 1112.12,-231.91 1117.19,-236.72"/>
<text text-anchor="middle" x="1077.63" y="-359.8" font-family="Times,serif" font-size="14.00">Sends Data</text>
</g>
<!-- DHBW_electrolyzer_rs -->
<g id="node15" class="node">
<title>DHBW_electrolyzer_rs</title>
<path fill="none" stroke="black" d="M807.75,-225.48C807.75,-225.48 655.25,-225.48 655.25,-225.48 649.25,-225.48 643.25,-219.48 643.25,-213.48 643.25,-213.48 643.25,-201.48 643.25,-201.48 643.25,-195.48 649.25,-189.48 655.25,-189.48 655.25,-189.48 807.75,-189.48 807.75,-189.48 813.75,-189.48 819.75,-195.48 819.75,-201.48 819.75,-201.48 819.75,-213.48 819.75,-213.48 819.75,-219.48 813.75,-225.48 807.75,-225.48"/>
<text text-anchor="middle" x="731.5" y="-202.8" font-family="Times,serif" font-size="14.00">DHBW_electrolyzer_rs</text>
</g>
<!-- industrial_bridge&#45;&gt;DHBW_electrolyzer_rs -->
<g id="edge19" class="edge">
<title>industrial_bridge&#45;&gt;DHBW_electrolyzer_rs</title>
<path fill="none" stroke="black" stroke-dasharray="1,5" d="M1015.29,-424.32C975.82,-414.16 926.64,-397.81 887.75,-373.1 828.68,-335.56 776.36,-270.86 749.86,-234.76"/>
<polygon fill="black" stroke="black" points="752.97,-233.09 744.27,-227.03 747.3,-237.19 752.97,-233.09"/>
<text text-anchor="middle" x="919.63" y="-359.8" font-family="Times,serif" font-size="14.00">Replaces</text>
</g>
<!-- DHBW_compressor -->
<g id="node18" class="node">
<title>DHBW_compressor</title>
<path fill="none" stroke="black" d="M979.5,-225.48C979.5,-225.48 849.5,-225.48 849.5,-225.48 843.5,-225.48 837.5,-219.48 837.5,-213.48 837.5,-213.48 837.5,-201.48 837.5,-201.48 837.5,-195.48 843.5,-189.48 849.5,-189.48 849.5,-189.48 979.5,-189.48 979.5,-189.48 985.5,-189.48 991.5,-195.48 991.5,-201.48 991.5,-201.48 991.5,-213.48 991.5,-213.48 991.5,-219.48 985.5,-225.48 979.5,-225.48"/>
<text text-anchor="middle" x="914.5" y="-202.8" font-family="Times,serif" font-size="14.00">DHBW_compressor</text>
</g>
<!-- industrial_bridge&#45;&gt;DHBW_compressor -->
<g id="edge20" class="edge">
<title>industrial_bridge&#45;&gt;DHBW_compressor</title>
<path fill="none" stroke="black" stroke-dasharray="1,5" d="M1034.86,-420.98C1011.28,-410.41 984.44,-394.73 966.75,-373.1 934.14,-333.24 921.77,-272.76 917.16,-237.28"/>
<polygon fill="black" stroke="black" points="920.64,-236.88 916.01,-227.35 913.68,-237.68 920.64,-236.88"/>
<text text-anchor="middle" x="998.63" y="-359.8" font-family="Times,serif" font-size="14.00">Replaces</text>
</g>
<!-- H2F_control&#45;&gt;industrial_device -->
<g id="edge4" class="edge">
<title>H2F_control&#45;&gt;industrial_device</title>
<path fill="none" stroke="black" d="M1209.07,-653.14C1220.18,-640.35 1235.1,-622.26 1246.5,-605.1 1300,-524.62 1303.05,-498.35 1349.25,-413.48 1384.06,-349.52 1425.59,-274.73 1447.4,-235.55"/>
<polygon fill="black" stroke="black" points="1450.34,-237.48 1452.15,-227.04 1444.22,-234.07 1450.34,-237.48"/>
<text text-anchor="middle" x="1366.88" y="-434.8" font-family="Times,serif" font-size="14.00">Uses</text>
</g>
<!-- H2F_control&#45;&gt;Grafana -->
<g id="edge12" class="edge">
<title>H2F_control&#45;&gt;Grafana</title>
<path fill="none" stroke="black" d="M1167.22,-653.13C1147.66,-637.82 1125.36,-613.94 1131.75,-587.85 1137.78,-563.24 1171.67,-503.01 1192.35,-467.64"/>
<polygon fill="black" stroke="black" points="1195.23,-469.64 1197.28,-459.25 1189.19,-466.1 1195.23,-469.64"/>
<text text-anchor="middle" x="1189.13" y="-591.8" font-family="Times,serif" font-size="14.00">Displays graphs</text>
</g>
<!-- Grafana&#45;&gt;InfluxDB -->
<g id="edge11" class="edge">
<title>Grafana&#45;&gt;InfluxDB</title>
<path fill="none" stroke="black" d="M1182.69,-421.16C1167.77,-409.54 1150.35,-392.77 1142,-373.1 1123.02,-328.39 1128.58,-270.48 1134.46,-236.61"/>
<polygon fill="black" stroke="black" points="1137.83,-237.65 1136.24,-227.18 1130.95,-236.36 1137.83,-237.65"/>
<text text-anchor="middle" x="1181.75" y="-359.8" font-family="Times,serif" font-size="14.00">Query data</text>
</g>
<!-- DHBW_electrolyzer -->
<g id="node17" class="node">
<title>DHBW_electrolyzer</title>
<path fill="none" stroke="black" d="M797.25,-75.48C797.25,-75.48 665.75,-75.48 665.75,-75.48 659.75,-75.48 653.75,-69.48 653.75,-63.48 653.75,-63.48 653.75,-51.48 653.75,-51.48 653.75,-45.48 659.75,-39.48 665.75,-39.48 665.75,-39.48 797.25,-39.48 797.25,-39.48 803.25,-39.48 809.25,-45.48 809.25,-51.48 809.25,-51.48 809.25,-63.48 809.25,-63.48 809.25,-69.48 803.25,-75.48 797.25,-75.48"/>
<text text-anchor="middle" x="731.5" y="-52.8" font-family="Times,serif" font-size="14.00">DHBW_electrolyzer</text>
</g>
<!-- DHBW_electrolyzer_rs&#45;&gt;DHBW_electrolyzer -->
<g id="edge25" class="edge">
<title>DHBW_electrolyzer_rs&#45;&gt;DHBW_electrolyzer</title>
<path fill="none" stroke="black" stroke-dasharray="1,5" d="M731.5,-189.21C731.5,-164.14 731.5,-117.38 731.5,-87.11"/>
<polygon fill="black" stroke="black" points="735,-87.15 731.5,-77.15 728,-87.15 735,-87.15"/>
<text text-anchor="middle" x="763.38" y="-127.8" font-family="Times,serif" font-size="14.00">Replaces</text>
</g>
<!-- electrolyzer_eta -->
<g id="node19" class="node">
<title>electrolyzer_eta</title>
<path fill="none" stroke="black" d="M1439.5,-689.48C1439.5,-689.48 1333.5,-689.48 1333.5,-689.48 1327.5,-689.48 1321.5,-683.48 1321.5,-677.48 1321.5,-677.48 1321.5,-665.48 1321.5,-665.48 1321.5,-659.48 1327.5,-653.48 1333.5,-653.48 1333.5,-653.48 1439.5,-653.48 1439.5,-653.48 1445.5,-653.48 1451.5,-659.48 1451.5,-665.48 1451.5,-665.48 1451.5,-677.48 1451.5,-677.48 1451.5,-683.48 1445.5,-689.48 1439.5,-689.48"/>
<text text-anchor="middle" x="1386.5" y="-666.8" font-family="Times,serif" font-size="14.00">electrolyzer_eta</text>
</g>
<!-- electrolyzer_eta&#45;&gt;modbus_device -->
<g id="edge22" class="edge">
<title>electrolyzer_eta&#45;&gt;modbus_device</title>
<path fill="none" stroke="black" d="M1391.69,-653.19C1403.5,-613.81 1432.51,-517.13 1446.99,-468.86"/>
<polygon fill="black" stroke="black" points="1450.3,-470 1449.82,-459.41 1443.59,-467.99 1450.3,-470"/>
<text text-anchor="middle" x="1428.41" y="-591.8" font-family="Times,serif" font-size="14.00">Uses</text>
</g>
<!-- DHBW_electrolyzer_dynamics -->
<g id="node20" class="node">
<title>DHBW_electrolyzer_dynamics</title>
<path fill="none" stroke="black" d="M1687.38,-689.48C1687.38,-689.48 1481.63,-689.48 1481.63,-689.48 1475.63,-689.48 1469.63,-683.48 1469.63,-677.48 1469.63,-677.48 1469.63,-665.48 1469.63,-665.48 1469.63,-659.48 1475.63,-653.48 1481.63,-653.48 1481.63,-653.48 1687.38,-653.48 1687.38,-653.48 1693.38,-653.48 1699.38,-659.48 1699.38,-665.48 1699.38,-665.48 1699.38,-677.48 1699.38,-677.48 1699.38,-683.48 1693.38,-689.48 1687.38,-689.48"/>
<text text-anchor="middle" x="1584.5" y="-666.8" font-family="Times,serif" font-size="14.00">DHBW_electrolyzer_dynamics</text>
</g>
<!-- DHBW_electrolyzer_dynamics&#45;&gt;modbus_device -->
<g id="edge23" class="edge">
<title>DHBW_electrolyzer_dynamics&#45;&gt;modbus_device</title>
<path fill="none" stroke="black" d="M1574.81,-653.19C1552.58,-613.56 1497.81,-515.9 1470.91,-467.94"/>
<polygon fill="black" stroke="black" points="1473.99,-466.29 1466.05,-459.28 1467.89,-469.72 1473.99,-466.29"/>
<text text-anchor="middle" x="1564.01" y="-591.8" font-family="Times,serif" font-size="14.00">Uses</text>
</g>
<!-- DHBW_electrolyzer_writer -->
<g id="node21" class="node">
<title>DHBW_electrolyzer_writer</title>
<path fill="none" stroke="black" d="M1911.75,-689.48C1911.75,-689.48 1729.25,-689.48 1729.25,-689.48 1723.25,-689.48 1717.25,-683.48 1717.25,-677.48 1717.25,-677.48 1717.25,-665.48 1717.25,-665.48 1717.25,-659.48 1723.25,-653.48 1729.25,-653.48 1729.25,-653.48 1911.75,-653.48 1911.75,-653.48 1917.75,-653.48 1923.75,-659.48 1923.75,-665.48 1923.75,-665.48 1923.75,-677.48 1923.75,-677.48 1923.75,-683.48 1917.75,-689.48 1911.75,-689.48"/>
<text text-anchor="middle" x="1820.5" y="-666.8" font-family="Times,serif" font-size="14.00">DHBW_electrolyzer_writer</text>
</g>
<!-- DHBW_electrolyzer_writer&#45;&gt;modbus_device -->
<g id="edge24" class="edge">
<title>DHBW_electrolyzer_writer&#45;&gt;modbus_device</title>
<path fill="none" stroke="black" d="M1777.47,-653.06C1717.99,-627.85 1608.82,-577.43 1527.5,-515.98 1508.54,-501.64 1490.09,-482.16 1476.62,-466.58"/>
<polygon fill="black" stroke="black" points="1479.41,-464.45 1470.28,-459.08 1474.06,-468.97 1479.41,-464.45"/>
<text text-anchor="middle" x="1691.37" y="-591.8" font-family="Times,serif" font-size="14.00">Uses</text>
</g>
</g>
</svg>
